<?xml version="1.0" encoding="UTF-8" standalone="no"?>
<svg
   width="200"
   height="200"
   viewBox="0 0 24 24"
   version="1.1"
   id="svg1"
   sodipodi:docname="ev-notcharging-robi.svg"
   inkscape:version="1.4 (e7c3feb, 2024-10-09)"
   xmlns:inkscape="http://www.inkscape.org/namespaces/inkscape"
   xmlns:sodipodi="http://sodipodi.sourceforge.net/DTD/sodipodi-0.dtd"
   xmlns="http://www.w3.org/2000/svg"
   xmlns:svg="http://www.w3.org/2000/svg">
  <defs
     id="defs1" />
  <sodipodi:namedview
     id="namedview1"
     pagecolor="#ffffff"
     bordercolor="#999999"
     borderopacity="1"
     inkscape:showpageshadow="0"
     inkscape:pageopacity="0"
     inkscape:pagecheckerboard="0"
     inkscape:deskcolor="#d1d1d1"
     inkscape:zoom="6.462956"
     inkscape:cx="110.63049"
     inkscape:cy="86.647658"
     inkscape:window-width="2361"
     inkscape:window-height="1211"
     inkscape:window-x="1160"
     inkscape:window-y="156"
     inkscape:window-maximized="0"
     inkscape:current-layer="svg1" />
  <path
     fill="currentColor"
     d="m 6.8607025,12.997999 v -0.568 l 1.752,1.269 -0.212,-0.002 -0.262,0.066 -0.176,0.081 z m -0.708,2.492999 -0.053,0.938 -0.746,0.216 -2.331,-2.490999 v -0.856 l 2.393,2.283999 0.019,-0.006 0.963,-0.286 -0.066,0.139 -0.178,0.035 z m 0.858,-1.027999 -0.116,0.116 -0.192,0.231 -1.214,0.384999 -2.431,-2.221999 2.726,-0.737 0.696,-0.036 0.21,0.155 -0.802,0.018 -2.142,0.621 0.048,0.042 2.054,1.774 1.255,-0.433 z m 11.1080005,-2.246 0.181,-0.106 0.036,0.256 z m 0.156,-0.245 -0.212,0.121 -0.404,-0.211 0.678,-0.411 -0.032,0.137 -0.019,0.144 z m 0.881,-1.915999 -0.004,0.003 -0.1,0.09 -0.124,0.129 -0.129,0.164 -0.151,0.266 -1.62,-0.703 -1.703,0.709 -0.913001,-0.462 1.512001,-0.6810001 1.229,-0.336 z m -3.354,-0.7660001 1.402,-0.372 2.304,0.951 -0.146,0.103 -2.203,-0.914 -1.28,0.343 -1.660001,0.7360001 -0.166,-0.075 z m -7.1060005,6.9099981 -0.079,0.073 -0.849,0.8 v -0.011 l -0.049,0.045 c -0.1144624,-0.383404 -0.078709,-0.796001 0.1,-1.154 l 0.042,0.012 0.006,-0.014 0.838,0.237 z m 0.726,-1.327999 0.014,-0.032 c 0.4,0.1 0.6060005,0.368999 0.6310005,0.899999 l -1.1220005,0.335 v -0.008 l 0.468,-1.205999 z m 0.514,1.433999 v 0.009 h 0.052 c -0.08256,0.372971 -0.2917489,0.705837 -0.592,0.942 l -0.019,-0.042 -0.315,-0.717 -0.112,-0.249 v -0.011 z m -1.155,0.046 0.125,1.23 0.005,0.048 c -0.264,0.118 -0.82,0.057 -0.94,-0.136 l 0.529,-0.738 z m 0.078,-1.488999 v 0.029 l -0.109,1.182999 v -0.005 0.011 l -0.657,-0.572 c 0.172842,-0.297523 0.4435764,-0.525844 0.766,-0.645999 m -1.774,-0.263 c 0.809,-0.812 1.823,-1.165 2.7,-0.431 l 0.5610005,0.47 c 0.236688,0.234828 0.362779,0.558958 0.347,0.891999 0.01642,0.65782 -0.178059,1.303637 -0.555,1.843 -0.08942,0.124426 -0.1946347,0.2367 -0.3130005,0.334 -0.4141241,0.46135 -1.0149399,0.710281 -1.634,0.677 -0.087222,-0.01011 -0.1732797,-0.02853 -0.257,-0.055 -0.1834093,-0.05239 -0.3551443,-0.139271 -0.506,-0.256 l -0.259,-0.2 c -0.1457161,-0.120156 -0.2849142,-0.248004 -0.417,-0.383 -0.236,-0.293 -0.559,-0.32 -0.393,-1.589 0.1056277,-0.497108 0.3586302,-0.950839 0.726,-1.301999 m 1.323,3.239999 c 0.848,0.136 1.9630005,-0.985 1.7900005,-2.317 -0.06229,-0.493997 -0.4841033,-0.863405 -0.9820005,-0.859999 -0.738,-0.036 -1.665,0.954999 -1.711,1.993999 -0.084596,0.577537 0.3234828,1.111248 0.903,1.181 z M 19.680703,12.607999 c -0.08641,-0.316665 -0.0588,-0.653623 0.078,-0.952 l 0.668,0.2 z m 0.87,-1.854999 -0.086,0.999999 -0.5,-0.471 c 0.12741,-0.239475 0.33478,-0.426675 0.586,-0.528999 m 0.918,0.727999 -0.854,0.275 0.374,-1.021999 c 0.304,0.078 0.461,0.303999 0.48,0.746999 m -0.512,1.249 -0.342,-0.829 0.793,0.052 c -0.05946,0.302055 -0.218208,0.575555 -0.451,0.777 m -0.37,0.306 c -0.2,0.1 -0.625,0.047 -0.716,-0.112 l 0.616,-0.932 z m -0.082,-3.2749991 c 0,0 0.915,0.3780001 0.986,0.4450001 0.327239,0.317185 0.516541,0.750387 0.527,1.205999 -0.01267,0.588157 -0.220187,1.155477 -0.59,1.613 -0.344384,0.455288 -0.894292,0.707328 -1.464,0.671 -0.09966,-0.0043 -0.196779,-0.03283 -0.283,-0.083 l -0.754,-0.439 c -0.0583,-0.03271 -0.109331,-0.07695 -0.15,-0.13 -0.285697,-0.43273 -0.397154,-0.957505 -0.312,-1.469 0.08444,-1.053431 0.98392,-1.8532653 2.04,-1.8139991 m -0.766,3.1999991 c 0.123514,0.132449 0.288691,0.218567 0.468,0.244 0.646,0.112 1.494,-0.813 1.363,-1.912 -0.02225,-0.189522 -0.108297,-0.365841 -0.244,-0.499999 -0.135332,-0.128995 -0.313168,-0.204042 -0.5,-0.211 -0.561,-0.03 -1.268,0.787999 -1.3,1.644999 -0.02776,0.263255 0.0475,0.527032 0.21,0.736 z m -10.9030005,0.674 -2.129,-1.521 v -0.122 l 2.322,1.672 z m 0.354,-0.035 -2.461,-1.77 0.088,-0.2 6.1270005,-1.7059991 h 0.414 l 0.413,0.2080001 c -0.212902,-0.3363497 -0.294426,-0.7393455 -0.229,-1.1320001 0.07661,-0.8370037 0.797319,-1.4661399 1.637,-1.429 0,0 0.734,0.3 0.791,0.351 0.261674,0.2486776 0.413833,0.5911264 0.423,0.952 -0.001,0.064545 -0.0057,0.1289808 -0.014,0.193 l -0.351,0.093 c 0.01605,-0.1254891 0.01605,-0.2525109 0,-0.378 -0.01942,-0.1504113 -0.09004,-0.2895462 -0.2,-0.394 -0.111197,-0.1152758 -0.262921,-0.1827086 -0.423,-0.188 -0.450001,-0.023 -1.017001,0.622 -1.045001,1.3 -0.0058,0.1146542 0.0087,0.229435 0.043,0.339 L 13.887703,10.067 l 0.335999,0.151 0.012,-0.011 0.3,-0.132 0.026,0.023 0.009,0.008 -0.341,0.154 0.143,0.048 0.700001,0.352 c -0.07142,0.01178 -0.143624,0.01813 -0.216001,0.019 l 3.318001,1.675999 -0.073,0.093 -6.615,2.259 h -0.781 l -1.3700005,-1.107 z M 13.261703,10.116 l -5.9485393,1.674268 0.245,0.179 L 13.535703,10.268 Z m 0.544,0.29 -6.0737209,1.708244 0.254,0.181 C 9.9590842,11.747945 12.111576,11.102214 14.084702,10.555 Z m 0.546999,0.27 -6.1621931,1.774052 0.2674588,0.19349 L 14.667702,10.848 Z m 0.6,0.299999 -6.2988994,1.809417 0.266,0.167847 6.3309004,-1.830264 z m 0.586001,0.292 -6.3629826,1.87463 0.3086642,0.209847 6.4193184,-1.891477 z m 0.644,0.328 -6.4706815,1.920404 0.2856657,0.193488 6.5100158,-1.950892 z m -5.114539,2.867269 6.485539,-2.163269 -0.311,-0.144 -6.494539,2.101269 z m -0.523565,-0.376435 6.479104,-2.050834 -0.295,-0.144 -6.511104,1.980834 z m 7.599104,-1.369834 -6.681,2.391999 h -0.676 l 0.017,-0.187999 0.656,0.004 6.676,-2.349 0.077,-0.078 v 0.151 z m -7.303,2.543999 0.607,0.03 6.989,-2.466999 v 0.578 l -6.981,2.495999 -0.601,-0.037 z M 5.3297025,13.473999 c -0.077516,0.108191 -0.1685929,0.205989 -0.271,0.291 -0.055,0.049 -0.106,0.092 -0.158,0.135 l -0.289,-0.25 c 0.079072,-0.05642 0.1533272,-0.119301 0.222,-0.188 l 0.6,-0.149 z m -3.272,-1.28 c 0.090977,-0.4313 0.3094162,-0.825326 0.627,-1.131 0.7,-0.705999 1.578,-1.012999 2.34,-0.373999 0.051,0.043 0.47,0.393999 0.485,0.407999 0.2047223,0.204529 0.3136546,0.485938 0.3,0.775 0,0.105 0,0.2 -0.013,0.295 h -0.025 l -0.386,0.1 c 0.012272,-0.135549 0.00959,-0.272038 -0.008,-0.407 -0.052721,-0.428216 -0.4175564,-0.749219 -0.849,-0.747 -0.64,-0.032 -1.443,0.83 -1.483,1.733 v 0.053 l -0.131,0.035 0.139,0.128 c 0.00811,0.07089 0.022837,0.140861 0.044,0.209 l -0.148,-0.141 v 0.924 l -0.194,-0.15 c -0.1260763,-0.104608 -0.2465754,-0.215761 -0.361,-0.333 -0.202,-0.25 -0.481,-0.271 -0.337,-1.377 m 2.493,1.267 -0.41,-0.36 1.771,-0.527 h 0.817 v 0.342 z"
     id="path1"
     sodipodi:nodetypes="ccccccccccccccccccccccccccccccccccccccccccccccccccccccccccccccccccccccccccccccccccccccccccccccccccccccccccccccccccccccccccccccccccccccccccccccccccccccccccccccccccccccccccccccccccccccccccccccccccccccccccccccccccccccccccccccccccccccccccccccccccccccccccccccccccccccccccccccccccccccccccccccc" />
</svg>
